<svg width="40" height="41" viewBox="0 0 40 41" fill="none" xmlns="http://www.w3.org/2000/svg">
<path d="M23.3333 15.5001V14.8334C23.3333 13.9 23.3333 13.4333 23.1517 13.0768C22.9919 12.7632 22.7369 12.5082 22.4233 12.3484C22.0668 12.1667 21.6001 12.1667 20.6667 12.1667H19.3333C18.3999 12.1667 17.9332 12.1667 17.5767 12.3484C17.2631 12.5082 17.0081 12.7632 16.8483 13.0768C16.6667 13.4333 16.6667 13.9 16.6667 14.8334V15.5001M18.3333 20.0834V24.2501M21.6667 20.0834V24.2501M12.5 15.5001H27.5M25.8333 15.5001V24.8334C25.8333 26.2335 25.8333 26.9336 25.5608 27.4684C25.3212 27.9388 24.9387 28.3212 24.4683 28.5609C23.9335 28.8334 23.2335 28.8334 21.8333 28.8334H18.1667C16.7665 28.8334 16.0665 28.8334 15.5317 28.5609C15.0613 28.3212 14.6788 27.9388 14.4392 27.4684C14.1667 26.9336 14.1667 26.2335 14.1667 24.8334V15.5001" stroke="#475467" stroke-width="1.66667" stroke-linecap="round" stroke-linejoin="round"/>
</svg>
